<svg xmlns="http://www.w3.org/2000/svg" version="1.1" xmlns:xlink="http://www.w3.org/1999/xlink" xmlns:svgjs="http://svgjs.dev/svgjs" width="2000" height="1247" viewBox="0 0 2000 1247"><g transform="matrix(1,0,0,1,-1.2121212121212466,0.504858299595071)"><svg viewBox="0 0 396 247" data-background-color="#ffffff" preserveAspectRatio="xMidYMid meet" height="1247" width="2000" xmlns="http://www.w3.org/2000/svg" xmlns:xlink="http://www.w3.org/1999/xlink"><g id="tight-bounds" transform="matrix(1,0,0,1,0.2400000000000091,-0.09999999999999432)"><svg viewBox="0 0 395.52 247.2" height="247.2" width="395.52"><g><svg></svg></g><g><svg viewBox="0 0 395.52 247.2" height="247.2" width="395.52"><g transform="matrix(1,0,0,1,75.54432000000001,77.60485161290323)"><svg viewBox="0 0 244.43135999999996 91.99029677419352" height="91.99029677419352" width="244.43135999999996"><g><svg viewBox="0 0 244.43135999999996 91.99029677419352" height="91.99029677419352" width="244.43135999999996"><g><svg viewBox="0 0 244.43135999999996 91.99029677419352" height="91.99029677419352" width="244.43135999999996"><g id="textblocktransform"><svg viewBox="0 0 244.43135999999996 91.99029677419352" height="91.99029677419352" width="244.43135999999996" id="textblock"><g><svg viewBox="0 0 244.43135999999996 91.99029677419352" height="91.99029677419352" width="244.43135999999996"><g transform="matrix(1,0,0,1,0,0)"><svg width="244.43135999999996" viewBox="1.7999999999999998 -28 74.39 28" height="91.99029677419352" data-palette-color="#0f172a"><path d="M5.7-18Q5.7-16.85 5.5-16L5.5-16 7.5-16Q7.7-15.2 7.7-14L7.7-14Q7.7-12.85 7.5-12L7.5-12 6-12Q6.2-11.2 6.2-10L6.2-10Q6.2-8.85 6-8L6-8Q6.2-7.2 6.2-6L6.2-6Q6.2-4.85 6-4L6-4Q6.2-3.2 6.2-2L6.2-2Q6.2-0.85 6 0L6 0 2 0Q1.8-0.85 1.8-2L1.8-2Q1.8-3.2 2-4L2-4Q1.8-4.85 1.8-6L1.8-6Q1.8-7.2 2-8L2-8Q1.8-8.85 1.8-10L1.8-10Q1.8-11.2 2-12L2-12Q1.8-12.85 1.8-14L1.8-14Q1.8-15.2 2-16L2-16Q1.8-16.85 1.8-18L1.8-18Q1.8-19.2 2-20L2-20 5.5-20Q5.7-19.2 5.7-18L5.7-18ZM18-12Q18.2-11.2 18.2-10L18.2-10Q18.2-8.85 18-8L18-8Q18.2-7.2 18.2-6L18.2-6Q18.2-4.85 18-4L18-4Q18.2-3.2 18.2-2L18.2-2Q18.2-0.85 18 0L18 0 14 0Q13.8-0.85 13.8-2L13.8-2Q13.8-3.2 14-4L14-4Q13.8-4.85 13.8-6L13.8-6Q13.8-7.2 14-8L14-8Q13.8-8.85 13.8-10L13.8-10Q13.8-11.2 14-12L14-12Q13.8-12.85 13.8-14L13.8-14Q13.8-15.2 14-16L14-16 7.5-16Q7.3-16.85 7.3-18L7.3-18Q7.3-19.2 7.5-20L7.5-20 15.5-20Q15.7-19.2 15.7-18L15.7-18Q15.7-16.85 15.5-16L15.5-16 18-16Q18.2-15.2 18.2-14L18.2-14Q18.2-12.85 18-12L18-12ZM38-4Q38.2-3.2 38.2-2L38.2-2Q38.2-0.85 38 0L38 0 34 0Q33.8-0.85 33.8-2L33.8-2Q33.8-3.2 34-4L34-4 32-4Q31.8-4.85 31.8-6L31.8-6Q31.8-7.2 32-8L32-8 26-8Q26.2-7.2 26.2-6L26.2-6Q26.2-4.85 26-4L26-4 32-4Q32.2-3.2 32.2-2L32.2-2Q32.2-0.85 32 0L32 0 24 0Q23.8-0.85 23.8-2L23.8-2Q23.8-3.2 24-4L24-4 22-4Q21.8-4.85 21.8-6L21.8-6Q21.8-7.2 22-8L22-8 24-8Q23.8-8.85 23.8-10L23.8-10Q23.8-11.2 24-12L24-12 32-12Q31.8-12.85 31.8-14L31.8-14Q31.8-15.2 32-16L32-16 25-16Q24.8-16.85 24.8-18L24.8-18Q24.8-19.2 25-20L25-20 34-20Q34.2-19.2 34.2-18L34.2-18Q34.2-16.85 34-16L34-16 36-16Q36.2-15.2 36.2-14L36.2-14Q36.2-12.85 36-12L36-12Q36.2-11.2 36.2-10L36.2-10Q36.2-8.85 36-8L36-8Q36.2-7.2 36.2-6L36.2-6Q36.2-4.85 36-4L36-4 38-4ZM58.2-18Q58.2-16.85 58-16L58-16 56.5-16Q56.7-15.2 56.7-14L56.7-14Q56.7-12.85 56.5-12L56.5-12 55-12Q55.2-11.2 55.2-10L55.2-10Q55.2-8.85 55-8L55-8 54-8Q54.2-7.2 54.2-6L54.2-6Q54.2-4.85 54-4L54-4 52-4Q52.2-3.2 52.2-2L52.2-2Q52.2-0.85 52 0L52 0 48 0Q47.8-0.85 47.8-2L47.8-2Q47.8-3.2 48-4L48-4 46-4Q45.8-4.85 45.8-6L45.8-6Q45.8-7.2 46-8L46-8 45-8Q44.8-8.85 44.8-10L44.8-10Q44.8-11.2 45-12L45-12 43.5-12Q43.3-12.85 43.3-14L43.3-14Q43.3-15.2 43.5-16L43.5-16 42-16Q41.8-16.85 41.8-18L41.8-18Q41.8-19.2 42-20L42-20 46-20Q46.2-19.2 46.2-18L46.2-18Q46.2-16.85 46-16L46-16 47.5-16Q47.7-15.2 47.7-14L47.7-14Q47.7-12.85 47.5-12L47.5-12 49-12Q49.2-11.2 49.2-10L49.2-10Q49.2-8.85 49-8L49-8 51-8Q50.8-8.85 50.8-10L50.8-10Q50.8-11.2 51-12L51-12 52.5-12Q52.3-12.85 52.3-14L52.3-14Q52.3-15.2 52.5-16L52.5-16 54-16Q53.8-16.85 53.8-18L53.8-18Q53.8-19.2 54-20L54-20 58-20Q58.2-19.2 58.2-18L58.2-18ZM71.99-24L67.99-24Q67.79-24.85 67.79-26L67.79-26Q67.79-27.2 67.99-28L67.99-28 71.99-28Q72.19-27.2 72.19-26L72.19-26Q72.19-24.85 71.99-24L71.99-24ZM75.99-4Q76.19-3.2 76.19-2L76.19-2Q76.19-0.85 75.99 0L75.99 0 63.99 0Q63.79-0.85 63.79-2L63.79-2Q63.79-3.2 63.99-4L63.99-4 67.99-4Q67.79-4.85 67.79-6L67.79-6Q67.79-7.2 67.99-8L67.99-8Q67.79-8.85 67.79-10L67.79-10Q67.79-11.2 67.99-12L67.99-12Q67.79-12.85 67.79-14L67.79-14Q67.79-15.2 67.99-16L67.99-16 64.99-16Q64.79-16.85 64.79-18L64.79-18Q64.79-19.2 64.99-20L64.99-20 71.99-20Q72.19-19.2 72.19-18L72.19-18Q72.19-16.85 71.99-16L71.99-16Q72.19-15.2 72.19-14L72.19-14Q72.19-12.85 71.99-12L71.99-12Q72.19-11.2 72.19-10L72.19-10Q72.19-8.85 71.99-8L71.99-8Q72.19-7.2 72.19-6L72.19-6Q72.19-4.85 71.99-4L71.99-4 75.99-4Z" opacity="1" transform="matrix(1,0,0,1,0,0)" fill="#0f172a" class="wordmark-text-0" data-fill-palette-color="primary" id="text-0"></path></svg></g></svg></g></svg></g></svg></g></svg></g></svg></g><path d="M220.998 71.605L220.998 18.652 11.102 18.652 11.102 228.548 220.998 228.548 220.998 175.595 212.702 175.595 212.702 220.252 19.398 220.252 19.398 26.948 212.702 26.948 212.702 71.605Z" fill="#0f172a" stroke="transparent" data-fill-palette-color="tertiary"></path></svg></g><defs></defs></svg><rect width="395.52" height="247.2" fill="none" stroke="none" visibility="hidden"></rect></g></svg></g></svg>